# xmcd
#
# Track frame offsets: 
#        182
#        13107
#        26242
#        38837
#        53117
#        67005
#        80007
#        98217
#        115820
#        135992
#        147417
#        162165
#        198767
#        212112
#
# Disc length: 3283 seconds
#
# Revision: 10
# Processed by: cddbd v1.5.2PL0 Copyright (c) Steve Scherf et al.
# Submitted via: ExactAudioCopyFreeDBPlugin 1.0
#
DISCID=c40cd10e
DTITLE=Dr. John - The Ultimate Dr. John
DYEAR=1987
DGENRE=Jazz+Funk
TTITLE0=Right Place Wrong Time
TTITLE1=Such A Night
TTITLE2=Traveling Mood
TTITLE3=What Comes Around (Goes Around)
TTITLE4=Me - You =Loneliness
TTITLE5=Let's Make A Better World
TTITLE6=Iko Iko
TTITLE7=Let The Good Times Roll
TTITLE8=Junko Partner
TTITLE9=Those Lonely Lonely Nights
TTITLE10=Hugh Smith Medley a-High Blood Pressure, b-Don't You Just Kno
TTITLE10=w It, c-Well I'll Be John Brown
TTITLE11=Mardi Gras Day
TTITLE12=Mama Roux
TTITLE13=I Walk On Guilded Splinters
EXTD=ID3G:   0 YEAR: 1987
EXTT0=
EXTT1=
EXTT2=
EXTT3=
EXTT4=
EXTT5=
EXTT6=
EXTT7=
EXTT8=
EXTT9=
EXTT10=
EXTT11=
EXTT12=
EXTT13=
PLAYORDER=
